<svg width="1349" height="222" viewBox="0 0 1349 222" fill="none" xmlns="http://www.w3.org/2000/svg">
<g id="OnepageStudio">
<path id="Studio" d="M889.639 129.128C875.97 125.199 866.009 120.384 859.756 114.685C853.558 108.929 850.459 101.846 850.459 93.4346C850.459 83.9163 854.25 76.0583 861.831 69.8604C869.468 63.6071 879.373 60.4805 891.548 60.4805C899.849 60.4805 907.236 62.0853 913.711 65.2949C920.241 68.5046 925.277 72.9316 928.818 78.5762C932.415 84.2207 934.214 90.391 934.214 97.0869H918.193C918.193 89.7822 915.869 84.0547 911.221 79.9043C906.572 75.6986 900.015 73.5957 891.548 73.5957C883.69 73.5957 877.547 75.3389 873.12 78.8252C868.748 82.2562 866.562 87.043 866.562 93.1855C866.562 98.1107 868.638 102.289 872.788 105.72C876.994 109.095 884.105 112.194 894.121 115.017C904.193 117.839 912.051 120.965 917.695 124.396C923.395 127.772 927.601 131.729 930.312 136.267C933.079 140.804 934.463 146.145 934.463 152.287C934.463 162.082 930.645 169.94 923.008 175.861C915.371 181.727 905.161 184.66 892.378 184.66C884.077 184.66 876.33 183.083 869.136 179.929C861.942 176.719 856.38 172.347 852.451 166.813C848.577 161.28 846.641 154.999 846.641 147.971H862.661C862.661 155.275 865.345 161.058 870.713 165.319C876.136 169.525 883.358 171.628 892.378 171.628C900.789 171.628 907.236 169.912 911.719 166.481C916.201 163.05 918.442 158.374 918.442 152.453C918.442 146.532 916.367 141.966 912.217 138.757C908.066 135.492 900.54 132.282 889.639 129.128ZM973.394 71.4375V93.1855H990.161V105.056H973.394V160.754C973.394 164.351 974.141 167.062 975.635 168.889C977.129 170.66 979.674 171.545 983.271 171.545C985.042 171.545 987.477 171.213 990.576 170.549V183C986.536 184.107 982.607 184.66 978.789 184.66C971.927 184.66 966.753 182.585 963.267 178.435C959.78 174.284 958.037 168.391 958.037 160.754V105.056H941.685V93.1855H958.037V71.4375H973.394ZM1063.62 174.118C1057.65 181.146 1048.88 184.66 1037.31 184.66C1027.74 184.66 1020.43 181.893 1015.4 176.359C1010.42 170.77 1007.9 162.525 1007.84 151.623V93.1855H1023.2V151.208C1023.2 164.821 1028.73 171.628 1039.8 171.628C1051.53 171.628 1059.33 167.256 1063.21 158.513V93.1855H1078.56V183H1063.96L1063.62 174.118ZM1098.24 137.346C1098.24 123.566 1101.5 112.499 1108.03 104.143C1114.56 95.7311 1123.11 91.5254 1133.68 91.5254C1144.2 91.5254 1152.52 95.1224 1158.67 102.316V55.5H1174.02V183H1159.91L1159.17 173.371C1153.02 180.897 1144.47 184.66 1133.52 184.66C1123.11 184.66 1114.62 180.399 1108.03 171.877C1101.5 163.355 1098.24 152.232 1098.24 138.508V137.346ZM1113.59 139.089C1113.59 149.271 1115.7 157.24 1119.9 162.995C1124.11 168.75 1129.92 171.628 1137.33 171.628C1147.07 171.628 1154.18 167.256 1158.67 158.513V117.258C1154.07 108.791 1147.02 104.558 1137.5 104.558C1129.97 104.558 1124.11 107.463 1119.9 113.273C1115.7 119.084 1113.59 127.689 1113.59 139.089ZM1214.61 183H1199.26V93.1855H1214.61V183ZM1198.01 69.3623C1198.01 66.8721 1198.76 64.7692 1200.25 63.0537C1201.8 61.3382 1204.07 60.4805 1207.06 60.4805C1210.05 60.4805 1212.32 61.3382 1213.87 63.0537C1215.42 64.7692 1216.19 66.8721 1216.19 69.3623C1216.19 71.8525 1215.42 73.9277 1213.87 75.5879C1212.32 77.248 1210.05 78.0781 1207.06 78.0781C1204.07 78.0781 1201.8 77.248 1200.25 75.5879C1198.76 73.9277 1198.01 71.8525 1198.01 69.3623ZM1235.2 137.263C1235.2 128.464 1236.92 120.55 1240.35 113.522C1243.83 106.494 1248.65 101.071 1254.79 97.2529C1260.99 93.4346 1268.04 91.5254 1275.96 91.5254C1288.19 91.5254 1298.06 95.7588 1305.59 104.226C1313.17 112.692 1316.96 123.954 1316.96 138.01V139.089C1316.96 147.832 1315.28 155.69 1311.9 162.663C1308.58 169.58 1303.79 174.976 1297.54 178.85C1291.34 182.723 1284.2 184.66 1276.12 184.66C1263.95 184.66 1254.07 180.427 1246.49 171.96C1238.96 163.493 1235.2 152.287 1235.2 138.342V137.263ZM1250.64 139.089C1250.64 149.05 1252.94 157.046 1257.53 163.078C1262.18 169.11 1268.38 172.126 1276.12 172.126C1283.93 172.126 1290.12 169.082 1294.72 162.995C1299.31 156.853 1301.61 148.275 1301.61 137.263C1301.61 127.412 1299.25 119.444 1294.55 113.356C1289.9 107.214 1283.7 104.143 1275.96 104.143C1268.38 104.143 1262.26 107.159 1257.61 113.19C1252.96 119.222 1250.64 127.855 1250.64 139.089Z" fill="#F7931E"/>
<path id="Vector" d="M70.6369 182.14C35.8085 182.14 8.17539 159.115 0.543945 127.092C1.5324 127.194 28.2788 127.107 28.2788 127.107C34.8636 145.582 51.3039 158.112 70.6515 158.112C95.8425 158.112 116.106 136.861 116.106 108.922C116.106 82.1613 95.8425 61.709 70.6515 61.709C63.7468 61.709 57.5254 63.1626 51.6674 65.939L51.6383 40.0502C51.6383 40.0502 64.023 37.71 70.6515 37.71C111.774 37.71 142.852 68.9916 142.852 108.937C142.838 150.074 111.76 182.14 70.6369 182.14ZM249.285 179.786C239.837 179.786 235.912 175.846 235.912 166.412V120.377C235.912 108.181 232.758 99.9098 220.17 99.9098C206.796 99.9098 196.767 108.37 193.22 120.377C191.839 124.505 191.257 129.026 191.257 133.75V179.8H166.473V105.041C166.473 102.09 164.903 100.709 162.142 100.709H154.263V79.4576H177.288C186.141 79.4576 190.472 83.5858 190.472 90.6795V93.6303C190.472 95.7961 190.08 97.9475 190.08 97.9475H190.472C194.804 89.4875 205.619 77.1028 225.882 77.1028C248.108 77.1028 260.9 88.7025 260.9 115.26V154.42C260.9 157.167 262.47 158.752 265.231 158.752H273.095V179.8H249.285V179.786ZM377.77 133.939H308.52C310.482 151.644 323.478 160.889 338.624 160.889C354.759 160.889 366.751 149.667 366.751 149.667L377.188 166.979C377.188 166.979 361.838 182.14 336.851 182.14C303.592 182.14 282.936 158.127 282.936 129.607C282.936 98.7179 303.796 77.0737 333.9 77.0737C362.623 77.0737 378.366 98.1219 378.366 124.679C378.366 127.645 377.77 133.939 377.77 133.939ZM333.9 96.3631C321.108 96.3631 312.067 104.038 309.305 116.626H352.782C352.39 104.62 344.133 96.3631 333.9 96.3631ZM456.076 182.14C436.205 182.14 427.352 168.956 427.352 168.956H426.96C426.96 168.956 427.352 172.489 427.352 177.605V219.12H402.568V105.012C402.568 102.061 400.998 100.68 398.237 100.68H390.373V79.4285H412.598C421.843 79.4285 425.187 83.5567 425.187 89.0659C425.187 91.4208 425.187 92.9907 425.187 92.9907H425.579C425.579 92.9907 434.039 77.0591 457.442 77.0591C484.596 77.0591 502.097 98.4998 502.097 129.593C502.111 161.485 482.444 182.14 456.076 182.14ZM451.947 98.5289C438.967 98.5289 426.756 107.977 426.756 130.203C426.756 145.742 435.013 161.092 451.555 161.092C465.321 161.092 476.935 149.87 476.935 130C476.935 110.914 466.702 98.5289 451.947 98.5289ZM591.45 179.786C582.205 179.786 578.658 174.669 578.658 168.767C578.658 166.209 578.847 164.45 578.847 164.45H578.455C578.455 164.45 570.78 182.155 548.162 182.155C530.253 182.155 513.929 170.933 513.929 150.873C513.929 119.388 557.218 116.83 573.542 116.83H576.696V116.045C576.696 101.683 570.983 96.3776 558.206 96.3776C553.685 96.3776 544.818 97.555 544.818 103.064V108.384H521.604V97.7585C521.604 79.0651 547.973 77.1028 558.395 77.1028C591.843 77.1028 601.684 94.6042 601.684 117.048V154.42C601.684 157.167 603.254 158.752 606.015 158.752H613.879V179.8H591.45V179.786ZM577.089 133.939H572.757C559.776 133.939 539.12 135.712 539.12 149.681C539.12 156.368 544.034 162.662 554.267 162.662C567.655 162.662 577.089 148.489 577.089 136.294V133.939ZM726.229 100.68C723.67 100.68 721.897 102.061 721.897 104.62V173.68C721.897 208.116 695.136 221.097 668.971 221.097C656.383 221.097 642.995 217.55 633.358 212.434L641.033 192.752C641.033 192.752 653.432 199.438 668.768 199.438C683.914 199.438 697.098 192.941 697.098 174.843V170.119C697.098 167.75 697.287 164.799 697.287 164.799H696.895C690.993 173.259 682.33 177.78 668.957 177.78C640.233 177.78 623.895 154.566 623.895 127.02C623.895 99.4738 639.434 77.0446 668.361 77.0446C691.575 77.0446 699.25 91.2027 699.25 91.2027H699.642C699.642 91.2027 699.642 90.0253 699.642 88.6444C699.642 84.1236 702.782 79.3994 710.661 79.3994H733.875V100.651H726.229V100.68ZM672.707 98.3254C657.56 98.3254 649.304 109.344 649.304 126.264C649.304 143.78 658.156 156.76 674.291 156.76C686.298 156.76 697.709 149.87 697.709 127.252C697.694 104.416 686.284 98.3254 672.707 98.3254ZM839.16 133.939H769.91C771.872 151.644 784.853 160.889 800.014 160.889C816.149 160.889 828.156 149.667 828.156 149.667L838.578 166.979C838.578 166.979 823.228 182.14 798.255 182.14C764.996 182.14 744.341 158.127 744.341 129.607C744.341 98.7179 765.185 77.0737 795.29 77.0737C824.013 77.0737 839.756 98.1219 839.756 124.679C839.756 127.645 839.16 133.939 839.16 133.939ZM795.29 96.3631C782.498 96.3631 773.442 104.038 770.695 116.626H814.172C813.78 104.62 805.523 96.3631 795.29 96.3631Z" fill="white"/>
<path id="Vector 1" d="M0.886597 36.2383V18.5625C18.3299 15.0273 25.5979 5.30557 27.0515 0.886597H40.134V89.266H53.2165V111.361H0.886597V89.266H18.3299V36.2383H0.886597Z" fill="#F7931E"/>
</g>
</svg>
